<?xml version="1.0" encoding="UTF-8" standalone="no"?>
<!DOCTYPE svg PUBLIC "-//W3C//DTD SVG 1.1//EN"
 "http://www.w3.org/Graphics/SVG/1.1/DTD/svg11.dtd">
<!-- Generated by graphviz version 2.30.1 (20180420.1509)
 -->
<!-- Title: snakemake_dag Pages: 1 -->
<svg width="320pt" height="548pt"
 viewBox="0.00 0.00 320.00 548.00" xmlns="http://www.w3.org/2000/svg" xmlns:xlink="http://www.w3.org/1999/xlink">
<g id="graph0" class="graph" transform="scale(1 1) rotate(0) translate(4 544)">
<title>snakemake_dag</title>
<polygon fill="white" stroke="white" points="-4,5 -4,-544 317,-544 317,5 -4,5"/>
<!-- 0 -->
<g id="node1" class="node"><title>0</title>
<path fill="none" stroke="#56d8b9" stroke-width="2" d="M150,-36C150,-36 120,-36 120,-36 114,-36 108,-30 108,-24 108,-24 108,-12 108,-12 108,-6 114,-0 120,-0 120,-0 150,-0 150,-0 156,-0 162,-6 162,-12 162,-12 162,-24 162,-24 162,-30 156,-36 150,-36"/>
<text text-anchor="middle" x="135" y="-15.5" font-family="sans" font-size="10.00">all</text>
</g>
<!-- 1 -->
<g id="node2" class="node"><title>1</title>
<path fill="none" stroke="#56d0d8" stroke-width="2" d="M160,-180C160,-180 110,-180 110,-180 104,-180 98,-174 98,-168 98,-168 98,-156 98,-156 98,-150 104,-144 110,-144 110,-144 160,-144 160,-144 166,-144 172,-150 172,-156 172,-156 172,-168 172,-168 172,-174 166,-180 160,-180"/>
<text text-anchor="middle" x="135" y="-159.5" font-family="sans" font-size="10.00">prep_snipre</text>
</g>
<!-- 1&#45;&gt;0 -->
<g id="edge1" class="edge"><title>1&#45;&gt;0</title>
<path fill="none" stroke="grey" stroke-width="2" d="M127.107,-143.745C122.893,-133.577 118.143,-120.327 116,-108 113.26,-92.2364 113.26,-87.7636 116,-72 117.523,-63.2364 120.365,-54.0062 123.394,-45.7484"/>
<polygon fill="grey" stroke="grey" points="126.724,-46.8428 127.107,-36.2548 120.205,-44.2931 126.724,-46.8428"/>
</g>
<!-- 2 -->
<g id="node3" class="node"><title>2</title>
<path fill="none" stroke="#d87d56" stroke-width="2" d="M210.25,-108C210.25,-108 137.75,-108 137.75,-108 131.75,-108 125.75,-102 125.75,-96 125.75,-96 125.75,-84 125.75,-84 125.75,-78 131.75,-72 137.75,-72 137.75,-72 210.25,-72 210.25,-72 216.25,-72 222.25,-78 222.25,-84 222.25,-84 222.25,-96 222.25,-96 222.25,-102 216.25,-108 210.25,-108"/>
<text text-anchor="middle" x="174" y="-87.5" font-family="sans" font-size="10.00">mk_snipre_stats</text>
</g>
<!-- 1&#45;&gt;2 -->
<g id="edge7" class="edge"><title>1&#45;&gt;2</title>
<path fill="none" stroke="grey" stroke-width="2" d="M144.64,-143.697C149.127,-135.644 154.559,-125.894 159.524,-116.982"/>
<polygon fill="grey" stroke="grey" points="162.661,-118.544 164.47,-108.104 156.546,-115.137 162.661,-118.544"/>
</g>
<!-- 2&#45;&gt;0 -->
<g id="edge2" class="edge"><title>2&#45;&gt;0</title>
<path fill="none" stroke="grey" stroke-width="2" d="M164.36,-71.6966C159.873,-63.6436 154.441,-53.8945 149.476,-44.9824"/>
<polygon fill="grey" stroke="grey" points="152.454,-43.1366 144.53,-36.1043 146.339,-46.5435 152.454,-43.1366"/>
</g>
<!-- 3 -->
<g id="node4" class="node"><title>3</title>
<path fill="none" stroke="#b6d856" stroke-width="2" stroke-dasharray="5,2" d="M42,-324C42,-324 12,-324 12,-324 6,-324 0,-318 0,-312 0,-312 0,-300 0,-300 0,-294 6,-288 12,-288 12,-288 42,-288 42,-288 48,-288 54,-294 54,-300 54,-300 54,-312 54,-312 54,-318 48,-324 42,-324"/>
<text text-anchor="middle" x="27" y="-303.5" font-family="sans" font-size="10.00">cds</text>
</g>
<!-- 3&#45;&gt;1 -->
<g id="edge3" class="edge"><title>3&#45;&gt;1</title>
<path fill="none" stroke="grey" stroke-width="2" d="M25.2551,-287.994C24.1777,-268.804 25.2007,-237.471 40,-216 51.6827,-199.05 70.6393,-186.926 88.5578,-178.591"/>
<polygon fill="grey" stroke="grey" points="90.0176,-181.773 97.7893,-174.572 87.2234,-175.354 90.0176,-181.773"/>
</g>
<!-- 4 -->
<g id="node5" class="node"><title>4</title>
<path fill="none" stroke="#56a9d8" stroke-width="2" d="M114.25,-252C114.25,-252 61.75,-252 61.75,-252 55.75,-252 49.75,-246 49.75,-240 49.75,-240 49.75,-228 49.75,-228 49.75,-222 55.75,-216 61.75,-216 61.75,-216 114.25,-216 114.25,-216 120.25,-216 126.25,-222 126.25,-228 126.25,-228 126.25,-240 126.25,-240 126.25,-246 120.25,-252 114.25,-252"/>
<text text-anchor="middle" x="88" y="-231.5" font-family="sans" font-size="10.00">callable_cds</text>
</g>
<!-- 3&#45;&gt;4 -->
<g id="edge8" class="edge"><title>3&#45;&gt;4</title>
<path fill="none" stroke="grey" stroke-width="2" d="M42.0787,-287.697C49.3917,-279.305 58.31,-269.07 66.3351,-259.861"/>
<polygon fill="grey" stroke="grey" points="69.1637,-261.943 73.0948,-252.104 63.8863,-257.344 69.1637,-261.943"/>
</g>
<!-- 4&#45;&gt;1 -->
<g id="edge4" class="edge"><title>4&#45;&gt;1</title>
<path fill="none" stroke="grey" stroke-width="2" d="M99.618,-215.697C105.139,-207.474 111.847,-197.483 117.932,-188.421"/>
<polygon fill="grey" stroke="grey" points="120.847,-190.358 123.516,-180.104 115.035,-186.456 120.847,-190.358"/>
</g>
<!-- 5 -->
<g id="node6" class="node"><title>5</title>
<path fill="none" stroke="#56d892" stroke-width="2" d="M207.25,-252C207.25,-252 156.75,-252 156.75,-252 150.75,-252 144.75,-246 144.75,-240 144.75,-240 144.75,-228 144.75,-228 144.75,-222 150.75,-216 156.75,-216 156.75,-216 207.25,-216 207.25,-216 213.25,-216 219.25,-222 219.25,-228 219.25,-228 219.25,-240 219.25,-240 219.25,-246 213.25,-252 207.25,-252"/>
<text text-anchor="middle" x="182" y="-231.5" font-family="sans" font-size="10.00">miss_snipre</text>
</g>
<!-- 5&#45;&gt;1 -->
<g id="edge5" class="edge"><title>5&#45;&gt;1</title>
<path fill="none" stroke="grey" stroke-width="2" d="M170.382,-215.697C164.861,-207.474 158.153,-197.483 152.068,-188.421"/>
<polygon fill="grey" stroke="grey" points="154.965,-186.456 146.484,-180.104 149.153,-190.358 154.965,-186.456"/>
</g>
<!-- 6 -->
<g id="node7" class="node"><title>6</title>
<path fill="none" stroke="#d8a456" stroke-width="2" d="M300,-252C300,-252 250,-252 250,-252 244,-252 238,-246 238,-240 238,-240 238,-228 238,-228 238,-222 244,-216 250,-216 250,-216 300,-216 300,-216 306,-216 312,-222 312,-228 312,-228 312,-240 312,-240 312,-246 306,-252 300,-252"/>
<text text-anchor="middle" x="275" y="-231.5" font-family="sans" font-size="10.00">gene_annot</text>
</g>
<!-- 6&#45;&gt;1 -->
<g id="edge6" class="edge"><title>6&#45;&gt;1</title>
<path fill="none" stroke="grey" stroke-width="2" d="M240.752,-215.876C221.939,-206.469 198.415,-194.708 178.334,-184.667"/>
<polygon fill="grey" stroke="grey" points="179.889,-181.531 169.38,-180.19 176.759,-187.792 179.889,-181.531"/>
</g>
<!-- 7 -->
<g id="node8" class="node"><title>7</title>
<path fill="none" stroke="#56d86b" stroke-width="2" d="M117.25,-540C117.25,-540 58.75,-540 58.75,-540 52.75,-540 46.75,-534 46.75,-528 46.75,-528 46.75,-516 46.75,-516 46.75,-510 52.75,-504 58.75,-504 58.75,-504 117.25,-504 117.25,-504 123.25,-504 129.25,-510 129.25,-516 129.25,-516 129.25,-528 129.25,-528 129.25,-534 123.25,-540 117.25,-540"/>
<text text-anchor="middle" x="88" y="-519.5" font-family="sans" font-size="10.00">callable_sites</text>
</g>
<!-- 7&#45;&gt;4 -->
<g id="edge9" class="edge"><title>7&#45;&gt;4</title>
<path fill="none" stroke="grey" stroke-width="2" d="M88,-503.966C88,-456.291 88,-321.185 88,-262.63"/>
<polygon fill="grey" stroke="grey" points="91.5001,-262.306 88,-252.306 84.5001,-262.306 91.5001,-262.306"/>
</g>
<!-- 10 -->
<g id="node11" class="node"><title>10</title>
<path fill="none" stroke="#567bd8" stroke-width="2" d="M211.25,-468C211.25,-468 176.75,-468 176.75,-468 170.75,-468 164.75,-462 164.75,-456 164.75,-456 164.75,-444 164.75,-444 164.75,-438 170.75,-432 176.75,-432 176.75,-432 211.25,-432 211.25,-432 217.25,-432 223.25,-438 223.25,-444 223.25,-444 223.25,-456 223.25,-456 223.25,-462 217.25,-468 211.25,-468"/>
<text text-anchor="middle" x="194" y="-447.5" font-family="sans" font-size="10.00">vcf_filter</text>
</g>
<!-- 7&#45;&gt;10 -->
<g id="edge15" class="edge"><title>7&#45;&gt;10</title>
<path fill="none" stroke="grey" stroke-width="2" d="M113.931,-503.876C127.662,-494.808 144.706,-483.552 159.536,-473.759"/>
<polygon fill="grey" stroke="grey" points="161.554,-476.621 167.97,-468.19 157.696,-470.78 161.554,-476.621"/>
</g>
<!-- 8 -->
<g id="node9" class="node"><title>8</title>
<path fill="none" stroke="#8fd856" stroke-width="2" d="M222,-396C222,-396 166,-396 166,-396 160,-396 154,-390 154,-384 154,-384 154,-372 154,-372 154,-366 160,-360 166,-360 166,-360 222,-360 222,-360 228,-360 234,-366 234,-372 234,-372 234,-384 234,-384 234,-390 228,-396 222,-396"/>
<text text-anchor="middle" x="194" y="-375.5" font-family="sans" font-size="10.00">vcf_annotate</text>
</g>
<!-- 8&#45;&gt;5 -->
<g id="edge10" class="edge"><title>8&#45;&gt;5</title>
<path fill="none" stroke="grey" stroke-width="2" d="M192.553,-359.871C190.507,-335.67 186.75,-291.211 184.315,-262.393"/>
<polygon fill="grey" stroke="grey" points="187.782,-261.859 183.453,-252.189 180.807,-262.449 187.782,-261.859"/>
</g>
<!-- 9 -->
<g id="node10" class="node"><title>9</title>
<path fill="none" stroke="#68d856" stroke-width="2" d="M282,-324C282,-324 242,-324 242,-324 236,-324 230,-318 230,-312 230,-312 230,-300 230,-300 230,-294 236,-288 242,-288 242,-288 282,-288 282,-288 288,-288 294,-294 294,-300 294,-300 294,-312 294,-312 294,-318 288,-324 282,-324"/>
<text text-anchor="middle" x="262" y="-303.5" font-family="sans" font-size="10.00">vcf_parse</text>
</g>
<!-- 8&#45;&gt;9 -->
<g id="edge13" class="edge"><title>8&#45;&gt;9</title>
<path fill="none" stroke="grey" stroke-width="2" d="M210.809,-359.697C219.126,-351.135 229.305,-340.656 238.39,-331.304"/>
<polygon fill="grey" stroke="grey" points="240.927,-333.716 245.384,-324.104 235.906,-328.838 240.927,-333.716"/>
</g>
<!-- 9&#45;&gt;6 -->
<g id="edge11" class="edge"><title>9&#45;&gt;6</title>
<path fill="none" stroke="grey" stroke-width="2" d="M265.213,-287.697C266.646,-279.983 268.368,-270.712 269.965,-262.112"/>
<polygon fill="grey" stroke="grey" points="273.439,-262.575 271.823,-252.104 266.556,-261.297 273.439,-262.575"/>
</g>
<!-- 10&#45;&gt;8 -->
<g id="edge12" class="edge"><title>10&#45;&gt;8</title>
<path fill="none" stroke="grey" stroke-width="2" d="M194,-431.697C194,-423.983 194,-414.712 194,-406.112"/>
<polygon fill="grey" stroke="grey" points="197.5,-406.104 194,-396.104 190.5,-406.104 197.5,-406.104"/>
</g>
<!-- 11 -->
<g id="node12" class="node"><title>11</title>
<path fill="none" stroke="#d85656" stroke-width="2" d="M238,-540C238,-540 160,-540 160,-540 154,-540 148,-534 148,-528 148,-528 148,-516 148,-516 148,-510 154,-504 160,-504 160,-504 238,-504 238,-504 244,-504 250,-510 250,-516 250,-516 250,-528 250,-528 250,-534 244,-540 238,-540"/>
<text text-anchor="middle" x="199" y="-519.5" font-family="sans" font-size="10.00">calc_missingness</text>
</g>
<!-- 11&#45;&gt;10 -->
<g id="edge14" class="edge"><title>11&#45;&gt;10</title>
<path fill="none" stroke="grey" stroke-width="2" d="M197.764,-503.697C197.213,-495.983 196.551,-486.712 195.937,-478.112"/>
<polygon fill="grey" stroke="grey" points="199.425,-477.83 195.222,-468.104 192.443,-478.328 199.425,-477.83"/>
</g>
</g>
</svg>
