<?xml version="1.0" encoding="UTF-8" standalone="no"?>
<!DOCTYPE svg PUBLIC "-//W3C//DTD SVG 1.1//EN"
 "http://www.w3.org/Graphics/SVG/1.1/DTD/svg11.dtd">
<!-- Generated by graphviz version 2.30.1 (20180420.1509)
 -->
<!-- Title: snakemake_dag Pages: 1 -->
<svg width="309pt" height="620pt"
 viewBox="0.00 0.00 309.00 620.00" xmlns="http://www.w3.org/2000/svg" xmlns:xlink="http://www.w3.org/1999/xlink">
<g id="graph0" class="graph" transform="scale(1 1) rotate(0) translate(4 616)">
<title>snakemake_dag</title>
<polygon fill="white" stroke="white" points="-4,5 -4,-616 306,-616 306,5 -4,5"/>
<!-- 0 -->
<g id="node1" class="node"><title>0</title>
<path fill="none" stroke="#56d87b" stroke-width="2" d="M153,-36C153,-36 123,-36 123,-36 117,-36 111,-30 111,-24 111,-24 111,-12 111,-12 111,-6 117,-0 123,-0 123,-0 153,-0 153,-0 159,-0 165,-6 165,-12 165,-12 165,-24 165,-24 165,-30 159,-36 153,-36"/>
<text text-anchor="middle" x="138" y="-15.5" font-family="sans" font-size="10.00">all</text>
</g>
<!-- 1 -->
<g id="node2" class="node"><title>1</title>
<path fill="none" stroke="#78d856" stroke-width="2" d="M163,-180C163,-180 113,-180 113,-180 107,-180 101,-174 101,-168 101,-168 101,-156 101,-156 101,-150 107,-144 113,-144 113,-144 163,-144 163,-144 169,-144 175,-150 175,-156 175,-156 175,-168 175,-168 175,-174 169,-180 163,-180"/>
<text text-anchor="middle" x="138" y="-159.5" font-family="sans" font-size="10.00">prep_snipre</text>
</g>
<!-- 1&#45;&gt;0 -->
<g id="edge1" class="edge"><title>1&#45;&gt;0</title>
<path fill="none" stroke="grey" stroke-width="2" d="M130.107,-143.745C125.893,-133.577 121.143,-120.327 119,-108 116.26,-92.2364 116.26,-87.7636 119,-72 120.523,-63.2364 123.365,-54.0062 126.394,-45.7484"/>
<polygon fill="grey" stroke="grey" points="129.724,-46.8428 130.107,-36.2548 123.205,-44.2931 129.724,-46.8428"/>
</g>
<!-- 2 -->
<g id="node3" class="node"><title>2</title>
<path fill="none" stroke="#59d856" stroke-width="2" d="M213.25,-108C213.25,-108 140.75,-108 140.75,-108 134.75,-108 128.75,-102 128.75,-96 128.75,-96 128.75,-84 128.75,-84 128.75,-78 134.75,-72 140.75,-72 140.75,-72 213.25,-72 213.25,-72 219.25,-72 225.25,-78 225.25,-84 225.25,-84 225.25,-96 225.25,-96 225.25,-102 219.25,-108 213.25,-108"/>
<text text-anchor="middle" x="177" y="-87.5" font-family="sans" font-size="10.00">mk_snipre_stats</text>
</g>
<!-- 1&#45;&gt;2 -->
<g id="edge7" class="edge"><title>1&#45;&gt;2</title>
<path fill="none" stroke="grey" stroke-width="2" d="M147.64,-143.697C152.127,-135.644 157.559,-125.894 162.524,-116.982"/>
<polygon fill="grey" stroke="grey" points="165.661,-118.544 167.47,-108.104 159.546,-115.137 165.661,-118.544"/>
</g>
<!-- 2&#45;&gt;0 -->
<g id="edge2" class="edge"><title>2&#45;&gt;0</title>
<path fill="none" stroke="grey" stroke-width="2" d="M167.36,-71.6966C162.873,-63.6436 157.441,-53.8945 152.476,-44.9824"/>
<polygon fill="grey" stroke="grey" points="155.454,-43.1366 147.53,-36.1043 149.339,-46.5435 155.454,-43.1366"/>
</g>
<!-- 3 -->
<g id="node4" class="node"><title>3</title>
<path fill="none" stroke="#56a2d8" stroke-width="2" d="M289,-252C289,-252 239,-252 239,-252 233,-252 227,-246 227,-240 227,-240 227,-228 227,-228 227,-222 233,-216 239,-216 239,-216 289,-216 289,-216 295,-216 301,-222 301,-228 301,-228 301,-240 301,-240 301,-246 295,-252 289,-252"/>
<text text-anchor="middle" x="264" y="-231.5" font-family="sans" font-size="10.00">gene_annot</text>
</g>
<!-- 3&#45;&gt;1 -->
<g id="edge3" class="edge"><title>3&#45;&gt;1</title>
<path fill="none" stroke="grey" stroke-width="2" d="M233.177,-215.876C216.55,-206.639 195.835,-195.131 177.981,-185.212"/>
<polygon fill="grey" stroke="grey" points="179.383,-181.987 168.942,-180.19 175.983,-188.106 179.383,-181.987"/>
</g>
<!-- 4 -->
<g id="node5" class="node"><title>4</title>
<path fill="none" stroke="#d87d56" stroke-width="2" stroke-dasharray="5,2" d="M114,-324C114,-324 84,-324 84,-324 78,-324 72,-318 72,-312 72,-312 72,-300 72,-300 72,-294 78,-288 84,-288 84,-288 114,-288 114,-288 120,-288 126,-294 126,-300 126,-300 126,-312 126,-312 126,-318 120,-324 114,-324"/>
<text text-anchor="middle" x="99" y="-303.5" font-family="sans" font-size="10.00">cds</text>
</g>
<!-- 4&#45;&gt;1 -->
<g id="edge4" class="edge"><title>4&#45;&gt;1</title>
<path fill="none" stroke="grey" stroke-width="2" d="M103.704,-287.871C110.38,-263.564 122.67,-218.819 130.581,-190.013"/>
<polygon fill="grey" stroke="grey" points="134.006,-190.759 133.279,-180.189 127.256,-188.905 134.006,-190.759"/>
</g>
<!-- 5 -->
<g id="node6" class="node"><title>5</title>
<path fill="none" stroke="#c6d856" stroke-width="2" d="M64.25,-252C64.25,-252 11.75,-252 11.75,-252 5.75,-252 -0.25,-246 -0.25,-240 -0.25,-240 -0.25,-228 -0.25,-228 -0.25,-222 5.75,-216 11.75,-216 11.75,-216 64.25,-216 64.25,-216 70.25,-216 76.25,-222 76.25,-228 76.25,-228 76.25,-240 76.25,-240 76.25,-246 70.25,-252 64.25,-252"/>
<text text-anchor="middle" x="38" y="-231.5" font-family="sans" font-size="10.00">callable_cds</text>
</g>
<!-- 4&#45;&gt;5 -->
<g id="edge9" class="edge"><title>4&#45;&gt;5</title>
<path fill="none" stroke="grey" stroke-width="2" d="M83.9213,-287.697C76.6083,-279.305 67.69,-269.07 59.6649,-259.861"/>
<polygon fill="grey" stroke="grey" points="62.1137,-257.344 52.9052,-252.104 56.8363,-261.943 62.1137,-257.344"/>
</g>
<!-- 5&#45;&gt;1 -->
<g id="edge5" class="edge"><title>5&#45;&gt;1</title>
<path fill="none" stroke="grey" stroke-width="2" d="M62.4628,-215.876C75.2956,-206.893 91.1964,-195.763 105.094,-186.034"/>
<polygon fill="grey" stroke="grey" points="107.258,-188.792 113.443,-180.19 103.244,-183.057 107.258,-188.792"/>
</g>
<!-- 6 -->
<g id="node7" class="node"><title>6</title>
<path fill="none" stroke="#9fd856" stroke-width="2" d="M196.25,-252C196.25,-252 145.75,-252 145.75,-252 139.75,-252 133.75,-246 133.75,-240 133.75,-240 133.75,-228 133.75,-228 133.75,-222 139.75,-216 145.75,-216 145.75,-216 196.25,-216 196.25,-216 202.25,-216 208.25,-222 208.25,-228 208.25,-228 208.25,-240 208.25,-240 208.25,-246 202.25,-252 196.25,-252"/>
<text text-anchor="middle" x="171" y="-231.5" font-family="sans" font-size="10.00">miss_snipre</text>
</g>
<!-- 6&#45;&gt;1 -->
<g id="edge6" class="edge"><title>6&#45;&gt;1</title>
<path fill="none" stroke="grey" stroke-width="2" d="M162.843,-215.697C159.086,-207.728 154.547,-198.1 150.382,-189.264"/>
<polygon fill="grey" stroke="grey" points="153.494,-187.657 146.063,-180.104 147.162,-190.642 153.494,-187.657"/>
</g>
<!-- 7 -->
<g id="node8" class="node"><title>7</title>
<path fill="none" stroke="#56c9d8" stroke-width="2" d="M267,-324C267,-324 227,-324 227,-324 221,-324 215,-318 215,-312 215,-312 215,-300 215,-300 215,-294 221,-288 227,-288 227,-288 267,-288 267,-288 273,-288 279,-294 279,-300 279,-300 279,-312 279,-312 279,-318 273,-324 267,-324"/>
<text text-anchor="middle" x="247" y="-303.5" font-family="sans" font-size="10.00">vcf_parse</text>
</g>
<!-- 7&#45;&gt;3 -->
<g id="edge8" class="edge"><title>7&#45;&gt;3</title>
<path fill="none" stroke="grey" stroke-width="2" d="M251.202,-287.697C253.096,-279.898 255.377,-270.509 257.484,-261.829"/>
<polygon fill="grey" stroke="grey" points="260.887,-262.648 259.846,-252.104 254.085,-260.996 260.887,-262.648"/>
</g>
<!-- 8 -->
<g id="node9" class="node"><title>8</title>
<path fill="none" stroke="#56d8a2" stroke-width="2" stroke-dasharray="5,2" d="M92.25,-540C92.25,-540 33.75,-540 33.75,-540 27.75,-540 21.75,-534 21.75,-528 21.75,-528 21.75,-516 21.75,-516 21.75,-510 27.75,-504 33.75,-504 33.75,-504 92.25,-504 92.25,-504 98.25,-504 104.25,-510 104.25,-516 104.25,-516 104.25,-528 104.25,-528 104.25,-534 98.25,-540 92.25,-540"/>
<text text-anchor="middle" x="63" y="-519.5" font-family="sans" font-size="10.00">callable_sites</text>
</g>
<!-- 8&#45;&gt;5 -->
<g id="edge10" class="edge"><title>8&#45;&gt;5</title>
<path fill="none" stroke="grey" stroke-width="2" d="M61.511,-503.966C57.3436,-456.291 45.5336,-321.185 40.4152,-262.63"/>
<polygon fill="grey" stroke="grey" points="43.8704,-261.964 39.5128,-252.306 36.897,-262.573 43.8704,-261.964"/>
</g>
<!-- 10 -->
<g id="node11" class="node"><title>10</title>
<path fill="none" stroke="#56d8c9" stroke-width="2" d="M175,-468C175,-468 145,-468 145,-468 139,-468 133,-462 133,-456 133,-456 133,-444 133,-444 133,-438 139,-432 145,-432 145,-432 175,-432 175,-432 181,-432 187,-438 187,-444 187,-444 187,-456 187,-456 187,-462 181,-468 175,-468"/>
<text text-anchor="middle" x="160" y="-447.5" font-family="sans" font-size="10.00">vcf_call</text>
</g>
<!-- 8&#45;&gt;10 -->
<g id="edge15" class="edge"><title>8&#45;&gt;10</title>
<path fill="none" stroke="grey" stroke-width="2" d="M86.9775,-503.697C99.3113,-494.796 114.516,-483.823 127.853,-474.199"/>
<polygon fill="grey" stroke="grey" points="130.237,-476.794 136.298,-468.104 126.141,-471.118 130.237,-476.794"/>
</g>
<!-- 9 -->
<g id="node10" class="node"><title>9</title>
<path fill="none" stroke="#d8a456" stroke-width="2" d="M199,-396C199,-396 143,-396 143,-396 137,-396 131,-390 131,-384 131,-384 131,-372 131,-372 131,-366 137,-360 143,-360 143,-360 199,-360 199,-360 205,-360 211,-366 211,-372 211,-372 211,-384 211,-384 211,-390 205,-396 199,-396"/>
<text text-anchor="middle" x="171" y="-375.5" font-family="sans" font-size="10.00">vcf_annotate</text>
</g>
<!-- 9&#45;&gt;6 -->
<g id="edge11" class="edge"><title>9&#45;&gt;6</title>
<path fill="none" stroke="grey" stroke-width="2" d="M171,-359.871C171,-335.67 171,-291.211 171,-262.393"/>
<polygon fill="grey" stroke="grey" points="174.5,-262.189 171,-252.189 167.5,-262.189 174.5,-262.189"/>
</g>
<!-- 9&#45;&gt;7 -->
<g id="edge12" class="edge"><title>9&#45;&gt;7</title>
<path fill="none" stroke="grey" stroke-width="2" d="M189.787,-359.697C199.174,-351.05 210.684,-340.449 220.913,-331.027"/>
<polygon fill="grey" stroke="grey" points="223.445,-333.454 228.43,-324.104 218.703,-328.305 223.445,-333.454"/>
</g>
<!-- 10&#45;&gt;9 -->
<g id="edge13" class="edge"><title>10&#45;&gt;9</title>
<path fill="none" stroke="grey" stroke-width="2" d="M162.719,-431.697C163.931,-423.983 165.388,-414.712 166.739,-406.112"/>
<polygon fill="grey" stroke="grey" points="170.217,-406.526 168.312,-396.104 163.302,-405.44 170.217,-406.526"/>
</g>
<!-- 11 -->
<g id="node12" class="node"><title>11</title>
<path fill="none" stroke="#d8c356" stroke-width="2" d="M177.25,-540C177.25,-540 142.75,-540 142.75,-540 136.75,-540 130.75,-534 130.75,-528 130.75,-528 130.75,-516 130.75,-516 130.75,-510 136.75,-504 142.75,-504 142.75,-504 177.25,-504 177.25,-504 183.25,-504 189.25,-510 189.25,-516 189.25,-516 189.25,-528 189.25,-528 189.25,-534 183.25,-540 177.25,-540"/>
<text text-anchor="middle" x="160" y="-519.5" font-family="sans" font-size="10.00">vcf_filter</text>
</g>
<!-- 11&#45;&gt;10 -->
<g id="edge14" class="edge"><title>11&#45;&gt;10</title>
<path fill="none" stroke="grey" stroke-width="2" d="M160,-503.697C160,-495.983 160,-486.712 160,-478.112"/>
<polygon fill="grey" stroke="grey" points="163.5,-478.104 160,-468.104 156.5,-478.104 163.5,-478.104"/>
</g>
<!-- 12 -->
<g id="node13" class="node"><title>12</title>
<path fill="none" stroke="#d85656" stroke-width="2" stroke-dasharray="5,2" d="M199,-612C199,-612 121,-612 121,-612 115,-612 109,-606 109,-600 109,-600 109,-588 109,-588 109,-582 115,-576 121,-576 121,-576 199,-576 199,-576 205,-576 211,-582 211,-588 211,-588 211,-600 211,-600 211,-606 205,-612 199,-612"/>
<text text-anchor="middle" x="160" y="-591.5" font-family="sans" font-size="10.00">calc_missingness</text>
</g>
<!-- 12&#45;&gt;11 -->
<g id="edge16" class="edge"><title>12&#45;&gt;11</title>
<path fill="none" stroke="grey" stroke-width="2" d="M160,-575.697C160,-567.983 160,-558.712 160,-550.112"/>
<polygon fill="grey" stroke="grey" points="163.5,-550.104 160,-540.104 156.5,-550.104 163.5,-550.104"/>
</g>
</g>
</svg>
