<?xml version="1.0" encoding="UTF-8" standalone="no"?>
<!DOCTYPE svg PUBLIC "-//W3C//DTD SVG 1.1//EN"
 "http://www.w3.org/Graphics/SVG/1.1/DTD/svg11.dtd">
<!-- Generated by graphviz version 2.30.1 (20180420.1509)
 -->
<!-- Title: snakemake_dag Pages: 1 -->
<svg width="330pt" height="620pt"
 viewBox="0.00 0.00 330.00 620.00" xmlns="http://www.w3.org/2000/svg" xmlns:xlink="http://www.w3.org/1999/xlink">
<g id="graph0" class="graph" transform="scale(1 1) rotate(0) translate(4 616)">
<title>snakemake_dag</title>
<polygon fill="white" stroke="white" points="-4,5 -4,-616 327,-616 327,5 -4,5"/>
<!-- 0 -->
<g id="node1" class="node"><title>0</title>
<path fill="none" stroke="#56d8a2" stroke-width="2" stroke-dasharray="5,2" d="M192,-36C192,-36 162,-36 162,-36 156,-36 150,-30 150,-24 150,-24 150,-12 150,-12 150,-6 156,-0 162,-0 162,-0 192,-0 192,-0 198,-0 204,-6 204,-12 204,-12 204,-24 204,-24 204,-30 198,-36 192,-36"/>
<text text-anchor="middle" x="177" y="-15.5" font-family="sans" font-size="10.00">all</text>
</g>
<!-- 1 -->
<g id="node2" class="node"><title>1</title>
<path fill="none" stroke="#d85656" stroke-width="2" stroke-dasharray="5,2" d="M202,-180C202,-180 152,-180 152,-180 146,-180 140,-174 140,-168 140,-168 140,-156 140,-156 140,-150 146,-144 152,-144 152,-144 202,-144 202,-144 208,-144 214,-150 214,-156 214,-156 214,-168 214,-168 214,-174 208,-180 202,-180"/>
<text text-anchor="middle" x="177" y="-159.5" font-family="sans" font-size="10.00">prep_snipre</text>
</g>
<!-- 1&#45;&gt;0 -->
<g id="edge1" class="edge"><title>1&#45;&gt;0</title>
<path fill="none" stroke="grey" stroke-width="2" d="M169.107,-143.745C164.893,-133.577 160.143,-120.327 158,-108 155.26,-92.2364 155.26,-87.7636 158,-72 159.523,-63.2364 162.365,-54.0062 165.394,-45.7484"/>
<polygon fill="grey" stroke="grey" points="168.724,-46.8428 169.107,-36.2548 162.205,-44.2931 168.724,-46.8428"/>
</g>
<!-- 2 -->
<g id="node3" class="node"><title>2</title>
<path fill="none" stroke="#567bd8" stroke-width="2" stroke-dasharray="5,2" d="M252.25,-108C252.25,-108 179.75,-108 179.75,-108 173.75,-108 167.75,-102 167.75,-96 167.75,-96 167.75,-84 167.75,-84 167.75,-78 173.75,-72 179.75,-72 179.75,-72 252.25,-72 252.25,-72 258.25,-72 264.25,-78 264.25,-84 264.25,-84 264.25,-96 264.25,-96 264.25,-102 258.25,-108 252.25,-108"/>
<text text-anchor="middle" x="216" y="-87.5" font-family="sans" font-size="10.00">mk_snipre_stats</text>
</g>
<!-- 1&#45;&gt;2 -->
<g id="edge7" class="edge"><title>1&#45;&gt;2</title>
<path fill="none" stroke="grey" stroke-width="2" d="M186.64,-143.697C191.127,-135.644 196.559,-125.894 201.524,-116.982"/>
<polygon fill="grey" stroke="grey" points="204.661,-118.544 206.47,-108.104 198.546,-115.137 204.661,-118.544"/>
</g>
<!-- 2&#45;&gt;0 -->
<g id="edge2" class="edge"><title>2&#45;&gt;0</title>
<path fill="none" stroke="grey" stroke-width="2" d="M206.36,-71.6966C201.873,-63.6436 196.441,-53.8945 191.476,-44.9824"/>
<polygon fill="grey" stroke="grey" points="194.454,-43.1366 186.53,-36.1043 188.339,-46.5435 194.454,-43.1366"/>
</g>
<!-- 3 -->
<g id="node4" class="node"><title>3</title>
<path fill="none" stroke="#56a2d8" stroke-width="2" stroke-dasharray="5,2" d="M310,-324C310,-324 266,-324 266,-324 260,-324 254,-318 254,-312 254,-312 254,-300 254,-300 254,-294 260,-288 266,-288 266,-288 310,-288 310,-288 316,-288 322,-294 322,-300 322,-300 322,-312 322,-312 322,-318 316,-324 310,-324"/>
<text text-anchor="middle" x="288" y="-303.5" font-family="sans" font-size="10.00">cds_genes</text>
</g>
<!-- 3&#45;&gt;1 -->
<g id="edge3" class="edge"><title>3&#45;&gt;1</title>
<path fill="none" stroke="grey" stroke-width="2" d="M288.823,-287.944C288.893,-268.708 286.33,-237.334 271,-216 259.378,-199.825 241.197,-187.944 223.91,-179.58"/>
<polygon fill="grey" stroke="grey" points="224.998,-176.231 214.445,-175.291 222.108,-182.607 224.998,-176.231"/>
</g>
<!-- 4 -->
<g id="node5" class="node"><title>4</title>
<path fill="none" stroke="#56c9d8" stroke-width="2" stroke-dasharray="5,2" d="M250.25,-252C250.25,-252 197.75,-252 197.75,-252 191.75,-252 185.75,-246 185.75,-240 185.75,-240 185.75,-228 185.75,-228 185.75,-222 191.75,-216 197.75,-216 197.75,-216 250.25,-216 250.25,-216 256.25,-216 262.25,-222 262.25,-228 262.25,-228 262.25,-240 262.25,-240 262.25,-246 256.25,-252 250.25,-252"/>
<text text-anchor="middle" x="224" y="-231.5" font-family="sans" font-size="10.00">callable_cds</text>
</g>
<!-- 3&#45;&gt;4 -->
<g id="edge10" class="edge"><title>3&#45;&gt;4</title>
<path fill="none" stroke="grey" stroke-width="2" d="M272.18,-287.697C264.43,-279.22 254.961,-268.864 246.476,-259.583"/>
<polygon fill="grey" stroke="grey" points="248.969,-257.123 239.638,-252.104 243.803,-261.846 248.969,-257.123"/>
</g>
<!-- 4&#45;&gt;1 -->
<g id="edge4" class="edge"><title>4&#45;&gt;1</title>
<path fill="none" stroke="grey" stroke-width="2" d="M212.382,-215.697C206.861,-207.474 200.153,-197.483 194.068,-188.421"/>
<polygon fill="grey" stroke="grey" points="196.965,-186.456 188.484,-180.104 191.153,-190.358 196.965,-186.456"/>
</g>
<!-- 5 -->
<g id="node6" class="node"><title>5</title>
<path fill="none" stroke="#9fd856" stroke-width="2" stroke-dasharray="5,2" d="M62.25,-252C62.25,-252 11.75,-252 11.75,-252 5.75,-252 -0.25,-246 -0.25,-240 -0.25,-240 -0.25,-228 -0.25,-228 -0.25,-222 5.75,-216 11.75,-216 11.75,-216 62.25,-216 62.25,-216 68.25,-216 74.25,-222 74.25,-228 74.25,-228 74.25,-240 74.25,-240 74.25,-246 68.25,-252 62.25,-252"/>
<text text-anchor="middle" x="37" y="-231.5" font-family="sans" font-size="10.00">miss_snipre</text>
</g>
<!-- 5&#45;&gt;1 -->
<g id="edge5" class="edge"><title>5&#45;&gt;1</title>
<path fill="none" stroke="grey" stroke-width="2" d="M71.2479,-215.876C90.0613,-206.469 113.585,-194.708 133.666,-184.667"/>
<polygon fill="grey" stroke="grey" points="135.241,-187.792 142.62,-180.19 132.111,-181.531 135.241,-187.792"/>
</g>
<!-- 6 -->
<g id="node7" class="node"><title>6</title>
<path fill="none" stroke="#56d8c9" stroke-width="2" stroke-dasharray="5,2" d="M155,-252C155,-252 105,-252 105,-252 99,-252 93,-246 93,-240 93,-240 93,-228 93,-228 93,-222 99,-216 105,-216 105,-216 155,-216 155,-216 161,-216 167,-222 167,-228 167,-228 167,-240 167,-240 167,-246 161,-252 155,-252"/>
<text text-anchor="middle" x="130" y="-231.5" font-family="sans" font-size="10.00">gene_annot</text>
</g>
<!-- 6&#45;&gt;1 -->
<g id="edge6" class="edge"><title>6&#45;&gt;1</title>
<path fill="none" stroke="grey" stroke-width="2" d="M141.618,-215.697C147.139,-207.474 153.847,-197.483 159.932,-188.421"/>
<polygon fill="grey" stroke="grey" points="162.847,-190.358 165.516,-180.104 157.035,-186.456 162.847,-190.358"/>
</g>
<!-- 7 -->
<g id="node8" class="node"><title>7</title>
<path fill="none" stroke="#d8a456" stroke-width="2" stroke-dasharray="5,2" d="M303,-396C303,-396 273,-396 273,-396 267,-396 261,-390 261,-384 261,-384 261,-372 261,-372 261,-366 267,-360 273,-360 273,-360 303,-360 303,-360 309,-360 315,-366 315,-372 315,-372 315,-384 315,-384 315,-390 309,-396 303,-396"/>
<text text-anchor="middle" x="288" y="-375.5" font-family="sans" font-size="10.00">cds</text>
</g>
<!-- 7&#45;&gt;3 -->
<g id="edge8" class="edge"><title>7&#45;&gt;3</title>
<path fill="none" stroke="grey" stroke-width="2" d="M288,-359.697C288,-351.983 288,-342.712 288,-334.112"/>
<polygon fill="grey" stroke="grey" points="291.5,-334.104 288,-324.104 284.5,-334.104 291.5,-334.104"/>
</g>
<!-- 8 -->
<g id="node9" class="node"><title>8</title>
<path fill="none" stroke="#d87d56" stroke-width="2" stroke-dasharray="5,2" d="M251.25,-540C251.25,-540 192.75,-540 192.75,-540 186.75,-540 180.75,-534 180.75,-528 180.75,-528 180.75,-516 180.75,-516 180.75,-510 186.75,-504 192.75,-504 192.75,-504 251.25,-504 251.25,-504 257.25,-504 263.25,-510 263.25,-516 263.25,-516 263.25,-528 263.25,-528 263.25,-534 257.25,-540 251.25,-540"/>
<text text-anchor="middle" x="222" y="-519.5" font-family="sans" font-size="10.00">callable_sites</text>
</g>
<!-- 8&#45;&gt;4 -->
<g id="edge9" class="edge"><title>8&#45;&gt;4</title>
<path fill="none" stroke="grey" stroke-width="2" d="M222.119,-503.966C222.453,-456.291 223.397,-321.185 223.807,-262.63"/>
<polygon fill="grey" stroke="grey" points="227.309,-262.331 223.879,-252.306 220.309,-262.282 227.309,-262.331"/>
</g>
<!-- 11 -->
<g id="node12" class="node"><title>11</title>
<path fill="none" stroke="#59d856" stroke-width="2" stroke-dasharray="5,2" d="M147,-468C147,-468 117,-468 117,-468 111,-468 105,-462 105,-456 105,-456 105,-444 105,-444 105,-438 111,-432 117,-432 117,-432 147,-432 147,-432 153,-432 159,-438 159,-444 159,-444 159,-456 159,-456 159,-462 153,-468 147,-468"/>
<text text-anchor="middle" x="132" y="-447.5" font-family="sans" font-size="10.00">vcf_call</text>
</g>
<!-- 8&#45;&gt;11 -->
<g id="edge15" class="edge"><title>8&#45;&gt;11</title>
<path fill="none" stroke="grey" stroke-width="2" d="M199.753,-503.697C188.418,-494.881 174.47,-484.032 162.181,-474.474"/>
<polygon fill="grey" stroke="grey" points="164.034,-471.481 153.991,-468.104 159.736,-477.007 164.034,-471.481"/>
</g>
<!-- 9 -->
<g id="node10" class="node"><title>9</title>
<path fill="none" stroke="#56d87b" stroke-width="2" stroke-dasharray="5,2" d="M158,-396C158,-396 102,-396 102,-396 96,-396 90,-390 90,-384 90,-384 90,-372 90,-372 90,-366 96,-360 102,-360 102,-360 158,-360 158,-360 164,-360 170,-366 170,-372 170,-372 170,-384 170,-384 170,-390 164,-396 158,-396"/>
<text text-anchor="middle" x="130" y="-375.5" font-family="sans" font-size="10.00">vcf_annotate</text>
</g>
<!-- 9&#45;&gt;5 -->
<g id="edge11" class="edge"><title>9&#45;&gt;5</title>
<path fill="none" stroke="grey" stroke-width="2" d="M115.747,-359.757C107.579,-349.593 97.329,-336.343 89,-324 75.106,-303.41 60.9915,-278.983 50.9802,-260.933"/>
<polygon fill="grey" stroke="grey" points="54.0257,-259.208 46.1419,-252.13 47.8911,-262.579 54.0257,-259.208"/>
</g>
<!-- 10 -->
<g id="node11" class="node"><title>10</title>
<path fill="none" stroke="#d8c356" stroke-width="2" stroke-dasharray="5,2" d="M150,-324C150,-324 110,-324 110,-324 104,-324 98,-318 98,-312 98,-312 98,-300 98,-300 98,-294 104,-288 110,-288 110,-288 150,-288 150,-288 156,-288 162,-294 162,-300 162,-300 162,-312 162,-312 162,-318 156,-324 150,-324"/>
<text text-anchor="middle" x="130" y="-303.5" font-family="sans" font-size="10.00">vcf_parse</text>
</g>
<!-- 9&#45;&gt;10 -->
<g id="edge14" class="edge"><title>9&#45;&gt;10</title>
<path fill="none" stroke="grey" stroke-width="2" d="M130,-359.697C130,-351.983 130,-342.712 130,-334.112"/>
<polygon fill="grey" stroke="grey" points="133.5,-334.104 130,-324.104 126.5,-334.104 133.5,-334.104"/>
</g>
<!-- 10&#45;&gt;6 -->
<g id="edge12" class="edge"><title>10&#45;&gt;6</title>
<path fill="none" stroke="grey" stroke-width="2" d="M130,-287.697C130,-279.983 130,-270.712 130,-262.112"/>
<polygon fill="grey" stroke="grey" points="133.5,-262.104 130,-252.104 126.5,-262.104 133.5,-262.104"/>
</g>
<!-- 11&#45;&gt;9 -->
<g id="edge13" class="edge"><title>11&#45;&gt;9</title>
<path fill="none" stroke="grey" stroke-width="2" d="M131.506,-431.697C131.285,-423.983 131.02,-414.712 130.775,-406.112"/>
<polygon fill="grey" stroke="grey" points="134.273,-406 130.489,-396.104 127.276,-406.2 134.273,-406"/>
</g>
<!-- 12 -->
<g id="node13" class="node"><title>12</title>
<path fill="none" stroke="#c6d856" stroke-width="2" stroke-dasharray="5,2" d="M149.25,-540C149.25,-540 114.75,-540 114.75,-540 108.75,-540 102.75,-534 102.75,-528 102.75,-528 102.75,-516 102.75,-516 102.75,-510 108.75,-504 114.75,-504 114.75,-504 149.25,-504 149.25,-504 155.25,-504 161.25,-510 161.25,-516 161.25,-516 161.25,-528 161.25,-528 161.25,-534 155.25,-540 149.25,-540"/>
<text text-anchor="middle" x="132" y="-519.5" font-family="sans" font-size="10.00">vcf_filter</text>
</g>
<!-- 12&#45;&gt;11 -->
<g id="edge16" class="edge"><title>12&#45;&gt;11</title>
<path fill="none" stroke="grey" stroke-width="2" d="M132,-503.697C132,-495.983 132,-486.712 132,-478.112"/>
<polygon fill="grey" stroke="grey" points="135.5,-478.104 132,-468.104 128.5,-478.104 135.5,-478.104"/>
</g>
<!-- 13 -->
<g id="node14" class="node"><title>13</title>
<path fill="none" stroke="#78d856" stroke-width="2" stroke-dasharray="5,2" d="M171,-612C171,-612 93,-612 93,-612 87,-612 81,-606 81,-600 81,-600 81,-588 81,-588 81,-582 87,-576 93,-576 93,-576 171,-576 171,-576 177,-576 183,-582 183,-588 183,-588 183,-600 183,-600 183,-606 177,-612 171,-612"/>
<text text-anchor="middle" x="132" y="-591.5" font-family="sans" font-size="10.00">calc_missingness</text>
</g>
<!-- 13&#45;&gt;12 -->
<g id="edge17" class="edge"><title>13&#45;&gt;12</title>
<path fill="none" stroke="grey" stroke-width="2" d="M132,-575.697C132,-567.983 132,-558.712 132,-550.112"/>
<polygon fill="grey" stroke="grey" points="135.5,-550.104 132,-540.104 128.5,-550.104 135.5,-550.104"/>
</g>
</g>
</svg>
